/vscmnt/brussel_pixiu_data/_data_brussel/112/vsc11236/PredSimResults/SUBJ07opt3D/expIG/worker_05.mot
version=1
nRows=9
nColumns=50
inDegrees=yes
endheader
                time	         pelvis_tilt	         pelvis_list	     pelvis_rotation	           pelvis_tx	           pelvis_ty	           pelvis_tz	       hip_flexion_r	     hip_adduction_r	      hip_rotation_r	        knee_angle_r	       ankle_angle_r	         mtp_angle_r	       hip_flexion_l	     hip_adduction_l	      hip_rotation_l	        knee_angle_l	       ankle_angle_l	         mtp_angle_l	    lumbar_extension	      lumbar_bending	     lumbar_rotation	 ercspn_r/activation	 intobl_r/activation	 extobl_r/activation	    abd_r/activation	    add_r/activation	hamstrings_r/activation	bifemsh_r/activation	glut_max_r/activation	iliopsoas_r/activation	rect_fem_r/activation	  vasti_r/activation	gastroc_r/activation	 soleus_r/activation	tib_ant_r/activation	 ercspn_l/activation	 intobl_l/activation	 extobl_l/activation	    abd_l/activation	    add_l/activation	hamstrings_l/activation	bifemsh_l/activation	glut_max_l/activation	iliopsoas_l/activation	rect_fem_l/activation	  vasti_l/activation	gastroc_l/activation	 soleus_l/activation	tib_ant_l/activation	
          1.80929437	         -3.15050418	          0.11610836	         -7.83207694	          1.80929437	          0.85821433	          0.01536127	        -12.42103864	          0.25937518	          3.35994242	         -7.93689997	         10.55261709	         22.77487670	         27.41888758	         -2.35006447	         -3.36237012	         -6.07327775	          1.07891080	          0.24965256	         -9.04290336	          2.68705081	          0.40786183	          0.05708991	          0.01000003	          0.01000007	          0.04655676	          0.01000008	          0.01000979	          0.12214433	          0.01101876	          0.13107530	          0.01000138	          0.01000016	          0.14464806	          0.29027270	          0.02080746	          0.13083303	          0.15647741	          0.01000019	          0.01400874	          0.09344672	          0.04373289	          0.03025504	          0.02702378	          0.02275031	          0.01000077	          0.01198107	          0.01000008	          0.01000001	          0.35805272	
          1.82135633	         -3.18571908	          0.07107642	         -7.86533281	          1.82313625	          0.85680726	          0.01483356	        -12.95331447	          0.18269892	          3.02166362	         -8.60127552	          9.94860242	         24.19176560	         27.10957996	         -2.14345770	         -3.10516469	         -6.95404245	          0.77679068	          0.25053036	         -8.95068753	          2.32567758	          0.63142655	          0.09253197	          0.01000004	          0.01000008	          0.03876395	          0.01000022	          0.01003991	          0.10169950	          0.01391258	          0.10913557	          0.03001323	          0.01000029	          0.12179972	          0.28133463	          0.01732465	          0.11266230	          0.13028586	          0.01000017	          0.01166393	          0.11267924	          0.03641284	          0.09635953	          0.07317952	          0.01894234	          0.01000092	          0.01000008	          0.01442853	          0.01364577	          0.35404982	
          1.83341830	         -3.21410330	          0.02415877	         -7.85553555	          1.83724453	          0.85557475	          0.01423594	        -13.44705087	          0.11199621	          2.65214058	         -9.36679766	          9.22115458	         25.60121743	         26.73927550	         -1.97681087	         -2.80170017	         -7.95369691	          0.45346240	          0.24241562	         -8.84362811	          1.95034453	          0.85967656	          0.09900621	          0.01000002	          0.01000011	          0.03227552	          0.01000017	          0.01002038	          0.08467678	          0.01158400	          0.09086817	          0.02499001	          0.01000096	          0.10141253	          0.26789103	          0.01442480	          0.11153067	          0.12098662	          0.01000010	          0.03821959	          0.10411669	          0.04339512	          0.10277696	          0.07891752	          0.01577174	          0.01000011	          0.01000003	          0.01201347	          0.01136171	          0.40154089	
          1.84548026	         -3.23750366	         -0.03432594	         -7.79946976	          1.85146824	          0.85464268	          0.01353855	        -13.83854652	          0.05996490	          2.25909127	        -10.32398386	          8.34870330	         26.99664849	         26.36070330	         -1.83295860	         -2.54489341	         -8.92180481	          0.04599364	          0.23158392	         -8.73960526	          1.57885448	          1.08708613	          0.11952121	          0.01000002	          0.01000010	          0.02687315	          0.01000009	          0.01000741	          0.07050338	          0.01000025	          0.07565842	          0.02080793	          0.01461094	          0.08443779	          0.25082737	          0.01201034	          0.12645125	          0.10073552	          0.01000009	          0.08142345	          0.12049670	          0.04230986	          0.08557407	          0.08938627	          0.01313185	          0.01000016	          0.01000010	          0.01000267	          0.01000003	          0.43356418	
          1.85754222	         -3.25562170	         -0.10857171	         -7.69998387	          1.86570640	          0.85412811	          0.01274966	        -14.08757705	          0.03199285	          1.84353278	        -11.52081203	          7.29702992	         28.36097382	         26.02774513	         -1.70531177	         -2.34657306	         -9.99043918	         -0.26488864	          0.21833515	         -8.64551053	          1.21780992	          1.30947222	          0.14975391	          0.01000002	          0.01000008	          0.02237504	          0.01000026	          0.01001696	          0.05870236	          0.01000078	          0.06299451	          0.01732525	          0.02133505	          0.07030433	          0.22874731	          0.01000004	          0.13123029	          0.08387411	          0.01000008	          0.11936071	          0.13607797	          0.04385142	          0.07125057	          0.10039161	          0.01093386	          0.01000018	          0.01000010	          0.01000011	          0.01000004	          0.44688084	
          1.86960418	         -3.26831007	         -0.19672903	         -7.56186211	          1.87988348	          0.85413559	          0.01188020	        -14.16565322	          0.02593221	          1.40177898	        -12.98655740	          6.05355546	         29.63027259	         25.76609508	         -1.59194804	         -2.19453523	        -11.22209489	         -0.35519592	          0.20326134	         -8.56195003	          0.86975759	          1.52579089	          0.17773092	          0.01000003	          0.01000011	          0.01862984	          0.02415647	          0.01003344	          0.04887663	          0.01000025	          0.05245033	          0.01442544	          0.02436815	          0.05853657	          0.20468974	          0.01000004	          0.13363297	          0.06983500	          0.01000009	          0.14976418	          0.15815171	          0.04385634	          0.05932456	          0.11169858	          0.01000020	          0.01000029	          0.01678517	          0.01000022	          0.01000007	          0.43489934	
          1.88166615	         -3.27585014	         -0.29865359	         -7.38823263	          1.89392737	          0.85473635	          0.01094200	        -14.02281289	          0.04230175	          0.92314242	        -14.79891869	          4.65501608	         30.67737101	         25.56208641	         -1.49040099	         -2.07235795	        -12.59166590	         -0.16645161	          0.19119992	         -8.48975529	          0.53864020	          1.73507329	          0.19308682	          0.01000003	          0.01000008	          0.01551152	          0.05207363	          0.01039138	          0.04069556	          0.01000010	          0.04367105	          0.01201102	          0.02080748	          0.04873854	          0.17141399	          0.01000003	          0.13656999	          0.05814580	          0.01000006	          0.16665847	          0.18447427	          0.04593407	          0.04939479	          0.12001984	          0.01000018	          0.01000018	          0.02447017	          0.01000012	          0.01000002	          0.40472671	
          1.89372811	         -3.27824693	         -0.41449973	         -7.18235320	          1.90779647	          0.85590765	          0.00994939	        -13.58707489	          0.07878766	          0.39440563	        -17.09112692	          3.19451695	         31.30975310	         25.36441504	         -1.39746582	         -1.96124461	        -13.99879174	          0.28795987	          0.20160988	         -8.42744926	          0.22649312	          1.93545301	          0.20385149	          0.01000003	          0.01000008	          0.01291515	          0.08130496	          0.01463414	          0.03388387	          0.01000006	          0.03636128	          0.01000089	          0.01732472	          0.04058053	          0.14272218	          0.01000004	          0.13811696	          0.04841318	          0.01000006	          0.17515178	          0.20490088	          0.04926654	          0.04112715	          0.12812287	          0.01000018	          0.01000017	          0.03102253	          0.01000013	          0.01000004	          0.35069004	
          1.90579007	         -3.27557088	         -0.54298613	         -6.94719740	          1.92147439	          0.85756977	          0.00891535	        -12.79649020	          0.12555692	         -0.19069437	        -19.97256670	          1.72150716	         31.36914537	         25.10695910	         -1.30887005	         -1.84289729	        -15.30957858	          0.94670037	          0.26956795	         -8.37146237	         -0.06703391	          2.12443023	          0.20623241	          0.01000003	          0.01000009	          0.01075338	          0.10823510	          0.01530975	          0.02821237	          0.01000004	          0.03027503	          0.01000037	          0.01442487	          0.03378803	          0.11883289	          0.01000003	          0.13532561	          0.04030964	          0.01000006	          0.17497706	          0.21353352	          0.05370992	          0.03424344	          0.13145143	          0.01000014	          0.01000014	          0.04223562	          0.01000019	          0.01000004	          0.29658378	
